<?xml version="1.0" encoding="utf-8"?>
<!-- Generator: Adobe Illustrator 16.0.0, SVG Export Plug-In . SVG Version: 6.00 Build 0)  -->
<!DOCTYPE svg PUBLIC "-//W3C//DTD SVG 1.1//EN" "http://www.w3.org/Graphics/SVG/1.1/DTD/svg11.dtd">
<svg version="1.1" xmlns="http://www.w3.org/2000/svg" xmlns:xlink="http://www.w3.org/1999/xlink" x="0px" y="0px" width="3000px"
	 height="3000px" viewBox="0 0 3000 3000" enable-background="new 0 0 3000 3000" xml:space="preserve">
<g id="Layer_2" display="none">
	<rect y="945.473" display="inline" fill="#666666" width="3000" height="2054.527"/>
</g>
<g id="Layer_1">
	<g>
		<path fill="#F2F2F2" d="M711.763,2182.273c0,53-16.672,94.336-50,124c-33.336,29.672-73,44.5-119,44.5
			c-45.672,0-85.172-14.75-118.5-44.25c-33.336-29.5-50-70.914-50-124.25c0-52.664,16.664-93.914,50-123.75
			c33.328-29.828,73-44.75,119-44.75s81.414,11.086,106.25,33.25c24.828,22.172,41.414,43.422,49.75,63.75
			C707.591,2131.109,711.763,2154.945,711.763,2182.273z M459.263,2182.273c0,25.672,8.164,45.836,24.5,60.5
			c16.328,14.672,35.828,22,58.5,22c22,0,41.164-7.164,57.5-21.5c16.328-14.328,24.5-34.664,24.5-61c0-26-8.172-46.25-24.5-60.75
			c-16.336-14.5-35.836-21.75-58.5-21.75c-22,0-41.172,7.086-57.5,21.25C467.427,2135.195,459.263,2155.609,459.263,2182.273z"/>
		<path fill="#F2F2F2" d="M722.261,2156.961v-72.313h71.5v263.125h-71.5V2156.961z M863.261,2084.648c28,0,51.328,8.344,70,25.016
			c18.664,16.68,28,41.859,28,75.547c0,25.016-9.5,47.203-28.5,66.547s-41.5,29.016-67.5,29.016h-53v-64l32.5-0.5
			c10.328,0,18.328-2.773,24-8.328c5.664-5.555,8.5-12.711,8.5-21.461c0-10.102-2.586-18.266-7.75-24.492
			c-5.172-6.227-13.586-9.344-25.25-9.344h-50.5v-68H863.261z"/>
		<path fill="#F2F2F2" d="M967.754,2156.961v-72.313h72v68.289v194.836h-72V2156.961z M1015.754,2185.273h118v64.5h-94
			L1015.754,2185.273z M1019.754,2282.273h114v65.5h-94L1019.754,2282.273z M1021.754,2152.648l18-68h161l-68,68H1021.754z"/>
		<path fill="#F2F2F2" d="M1155.75,2156.961l72-72.313v263.125h-72V2156.961z M1397.75,2347.273l-173-172.078l3.5-90.547l93,94.625
			v-94.625h76.5V2347.273z"/>
		<path fill="#111111" d="M1425.247,2347.711v-238.273l90-90.289v328.367c0,6.68-0.336,12.523-1,17.539
			c-1.672,7.016-3.422,15.461-5.25,25.32c-1.836,9.859-7.172,19.547-16,29.078c-8.836,9.523-18.836,16.461-30,20.805
			c-11.172,4.344-23.586,6.516-37.25,6.516h-36.5v-79h21c5.672,0,9.5-2.18,11.5-6.523L1425.247,2347.711z"/>
		<path fill="#111111" d="M1537.746,2084.648h72v263.125h-72V2084.648z"/>
		<path fill="#111111" d="M1622.86,2152.648v-68h228.344l-67.805,68H1622.86z M1688.204,2152.773l72-68.125v68.289v194.836h-72
			V2152.773z"/>
		<path fill="#111111" d="M1914.7,2186.961c25.328,0,45.914,7.523,61.75,22.57c15.828,15.047,23.75,34.109,23.75,57.172
			c0,22.07-7.836,41.383-23.5,57.93c-15.672,16.555-34.672,24.828-57,24.828h-62.5h-40.5v-65.5l96,0.5c4.328,0,8-1.773,11-5.328
			s4.5-7.703,4.5-12.453c0-9.477-6.336-14.219-19-14.219c-25.672,0-46.922-8.523-63.75-25.578
			c-16.836-17.047-25.25-37.609-25.25-61.688c0-21.063,8.5-39.445,25.5-55.164c17-15.711,36.5-23.57,58.5-23.57h162l-68.5,68h-96
			c-4,0-7.586,1.102-10.75,3.305c-3.172,2.203-4.75,5.5-4.75,9.898c0,7.453,2.5,12.531,7.5,15.234
			C1900.028,2185.609,1907.028,2186.961,1914.7,2186.961z"/>
		<path fill="#111111" d="M2224.697,2254.031c0,27.734-10.422,51.711-31.25,71.922c-20.836,20.219-45.922,30.32-75.25,30.32
			c-28.672,0-53.25-10.023-73.75-30.07s-30.75-44.102-30.75-72.172v-92.211l72-72.172v165.023c0,9.031,3.414,16.633,10.25,22.82
			c6.828,6.188,14.75,9.281,23.75,9.281c8.664,0,16.5-3.008,23.5-9.023s10.5-13.711,10.5-23.078v-165.023h71v35.586V2254.031z"/>
	</g>
	<g display="none">
		<path display="inline" fill="#F2F2F2" d="M711.763,1630.273c0,53-16.672,94.336-50,124c-33.336,29.672-73,44.5-119,44.5
			c-45.672,0-85.172-14.75-118.5-44.25c-33.336-29.5-50-70.914-50-124.25c0-52.664,16.664-93.914,50-123.75
			c33.328-29.828,73-44.75,119-44.75s81.414,11.086,106.25,33.25c24.828,22.172,41.414,43.422,49.75,63.75
			C707.591,1579.109,711.763,1602.945,711.763,1630.273z M459.263,1630.273c0,25.672,8.164,45.836,24.5,60.5
			c16.328,14.672,35.828,22,58.5,22c22,0,41.164-7.164,57.5-21.5c16.328-14.328,24.5-34.664,24.5-61c0-26-8.172-46.25-24.5-60.75
			c-16.336-14.5-35.836-21.75-58.5-21.75c-22,0-41.172,7.086-57.5,21.25C467.427,1583.195,459.263,1603.609,459.263,1630.273z"/>
		<path display="inline" fill="#F2F2F2" d="M722.261,1604.961v-72.313h71.5v263.125h-71.5V1604.961z M863.261,1532.648
			c28,0,51.328,8.344,70,25.016c18.664,16.68,28,41.859,28,75.547c0,25.016-9.5,47.203-28.5,66.547s-41.5,29.016-67.5,29.016h-53
			v-64l32.5-0.5c10.328,0,18.328-2.773,24-8.328c5.664-5.555,8.5-12.711,8.5-21.461c0-10.102-2.586-18.266-7.75-24.492
			c-5.172-6.227-13.586-9.344-25.25-9.344h-50.5v-68H863.261z"/>
		<path display="inline" fill="#F2F2F2" d="M967.754,1604.961v-72.313h72v68.289v194.836h-72V1604.961z M1039.754,1633.273h94v64.5
			h-94V1633.273z M1039.754,1730.273h94v65.5h-94V1730.273z M1039.754,1600.938v-68.289h161l-68,68L1039.754,1600.938z"/>
		<path display="inline" fill="#F2F2F2" d="M1155.75,1604.961l72-72.313v263.125h-72V1604.961z M1397.75,1795.273l-170-168.273
			v-94.352l93.5,94.625v-94.625h76.5V1795.273z"/>
		<path display="inline" fill="#111111" d="M1425.246,1795.711v-238.273l90-90.289v328.367c0,6.68-0.336,12.523-1,17.539
			c-1.672,7.016-3.422,15.461-5.25,25.32c-1.836,9.859-7.172,19.547-16,29.078c-8.836,9.523-18.836,16.461-30,20.805
			c-11.172,4.344-23.586,6.516-37.25,6.516h-36.5v-79h21c5.672,0,9.5-2.18,11.5-6.523L1425.246,1795.711z"/>
		<path display="inline" fill="#111111" d="M1537.746,1532.648h72v263.125h-72V1532.648z"/>
		<path display="inline" fill="#111111" d="M1622.86,1600.648v-68h228.344l-67.805,68H1622.86z M1688.25,1600.648h34.083h37.75
			l0.121,195.125h-72L1688.25,1600.648z"/>
		<path display="inline" fill="#111111" d="M1914.7,1634.961c25.328,0,45.914,7.523,61.75,22.57
			c15.828,15.047,23.75,34.109,23.75,57.172c0,22.07-7.836,41.383-23.5,57.93c-15.672,16.555-34.672,24.828-57,24.828h-62.5h-40.5
			v-65.5l96,0.5c4.328,0,8-1.773,11-5.328s4.5-7.703,4.5-12.453c0-9.477-6.336-14.219-19-14.219
			c-25.672,0-46.922-8.523-63.75-25.578c-16.836-17.047-25.25-37.609-25.25-61.688c0-21.063,8.5-39.445,25.5-55.164
			c17-15.711,36.5-23.57,58.5-23.57h162l-68.5,68h-96c-4,0-7.586,1.102-10.75,3.305c-3.172,2.203-4.75,5.5-4.75,9.898
			c0,7.453,2.5,12.531,7.5,15.234C1900.028,1633.609,1907.028,1634.961,1914.7,1634.961z"/>
		<path display="inline" fill="#111111" d="M2224.697,1702.031c0,27.734-10.422,51.711-31.25,71.922
			c-20.836,20.219-45.922,30.32-75.25,30.32c-28.672,0-53.25-10.023-73.75-30.07s-30.75-44.102-30.75-72.172v-92.211l72-72.172
			v165.023c0,9.031,3.414,16.633,10.25,22.82c6.828,6.188,14.75,9.281,23.75,9.281c8.664,0,16.5-3.008,23.5-9.023
			s10.5-13.711,10.5-23.078v-165.023h71v35.586V1702.031z"/>
	</g>
</g>
</svg>
